<svg width="168" height="167" viewBox="0 0 168 167" fill="none" xmlns="http://www.w3.org/2000/svg" class="klutch_spin_on_scroll" style="transform: rotate(0rad);">
<g clip-path="url(#clip0_92_3851)">
<path d="M83.7934 164.765C128.86 164.765 165.393 128.339 165.393 83.405C165.393 38.471 128.86 2.04492 83.7934 2.04492C38.7269 2.04492 2.19336 38.471 2.19336 83.405C2.19336 128.339 38.7269 164.765 83.7934 164.765Z" fill="#BFFFDA"></path>
<path d="M65.5054 23.6908L65.4023 23.2112L68.2455 22.1877L68.3399 22.6331C68.6019 23.8535 69.3621 24.727 70.6505 24.4487C72.1236 24.1318 71.9991 22.7615 71.8058 21.8709L70.0493 13.7092L72.974 13.084L74.6446 20.8303C74.9538 22.2648 75.8042 26.2215 71.3892 27.1678C68.5461 27.7759 66.1239 26.5726 65.5011 23.6865L65.5054 23.6908Z" fill="#396DFF"></path>
<path d="M76.1986 21.1087C76.0784 18.1754 78.0196 16.0215 80.9443 15.9016C83.8519 15.7817 85.9649 17.7729 86.0851 20.7019C86.2054 23.6479 84.2642 25.7719 81.3566 25.8918C78.4319 26.0117 76.3232 24.0548 76.1986 21.1087ZM81.245 23.1983C82.426 23.1512 83.2162 22.1578 83.1604 20.826C83.1046 19.46 82.237 18.5522 81.056 18.5993C79.8578 18.6464 79.0675 19.6442 79.1234 20.9888C79.1792 22.3205 80.0467 23.2454 81.245 23.1983Z" fill="#396DFF"></path>
<path d="M87.8629 16.2229L90.676 16.4542L89.9029 25.8662L87.0898 25.635L87.8629 16.2229ZM89.6538 11.9708C90.5815 12.0479 91.23 12.8443 91.157 13.7179C91.0797 14.66 90.3109 15.3408 89.3832 15.2637C88.4212 15.1867 87.777 14.3902 87.8543 13.4481C87.9273 12.5746 88.6961 11.8937 89.6538 11.9708Z" fill="#396DFF"></path>
<path d="M93.1967 16.6299L95.9282 17.1951L95.6791 18.4027L95.7134 18.4112C96.581 17.5591 97.7062 17.2893 98.767 17.5077C100.489 17.8631 101.692 19.4004 101.189 21.8284L99.9781 27.6734L97.2123 27.1039L98.17 22.4792C98.3418 21.6528 98.6338 20.2311 97.1779 19.9314C96.3834 19.7687 95.3827 20.0085 95.0048 21.8241L94.0471 26.4488L91.2812 25.8792L93.1967 16.6299Z" fill="#396DFF"></path>
<path d="M106.112 30.5122L106.902 19.9653L109.741 21.2328C109.556 23.3311 109.333 25.3565 109.05 27.686L109.08 27.6988C110.63 25.9346 112.03 24.4316 113.447 22.8857L116.209 24.119L106.481 34.1862L103.686 32.9401L106.112 30.5122Z" fill="#396DFF"></path>
<path d="M114.435 28.547C116.054 26.0976 118.893 25.4767 121.336 27.0825C123.767 28.6754 124.317 31.523 122.698 33.9724C121.07 36.4346 118.248 37.0298 115.822 35.4326C113.378 33.8268 112.807 31.0092 114.435 28.547ZM117.308 33.1802C118.296 33.8311 119.52 33.48 120.254 32.3666C121.006 31.2276 120.838 29.9815 119.846 29.3349C118.845 28.6754 117.621 29.0266 116.878 30.1528C116.144 31.2661 116.307 32.5208 117.308 33.1802Z" fill="#396DFF"></path>
<path d="M122.963 35.7407L127.026 31.4243L129.087 33.3513L125.673 36.9782C124.921 37.779 124.496 38.6996 125.299 39.449C126.025 40.1298 127.039 39.9885 127.906 39.0679L131.32 35.4409L133.382 37.3679L128.924 42.1039C127.846 43.2472 127.494 43.7953 127.12 44.4633L125.072 42.5492C125.312 42.1467 125.458 41.8941 125.608 41.757L125.583 41.7356C124.788 41.9155 123.86 41.8127 122.838 40.8578C121.211 39.3334 121.297 37.5178 122.963 35.7492V35.7407Z" fill="#396DFF"></path>
<path d="M135.113 39.4062L136.852 41.5816L135.847 42.3823L135.89 42.4337C136.792 42.3181 137.909 42.468 138.677 43.4314C138.858 43.6541 138.978 43.8596 139.098 44.1979L136.612 46.1763C136.466 45.7737 136.204 45.4012 136.028 45.1742C134.615 43.41 133 44.6904 132.063 45.4397L129.474 47.4994L127.713 45.2984L135.117 39.4062H135.113Z" fill="#396DFF"></path>
<path d="M141.822 48.604L143.183 51.032L142.063 51.6571L142.097 51.7171C143.007 51.7514 144.081 52.0811 144.682 53.1559C144.824 53.4042 144.91 53.6269 144.97 53.9823L142.196 55.5282C142.114 55.1085 141.921 54.6932 141.783 54.4448C140.68 52.4707 138.876 53.477 137.828 54.0594L134.933 55.6695L133.555 53.2115L141.822 48.604Z" fill="#396DFF"></path>
<path d="M141.023 56.7918C143.772 55.7426 146.439 56.8945 147.482 59.6179C148.522 62.3285 147.302 64.9577 144.553 66.0068C141.787 67.0602 139.151 65.8998 138.115 63.1892C137.072 60.4658 138.257 57.8452 141.023 56.7918ZM140.645 62.2257C141.066 63.3262 142.264 63.7587 143.514 63.2834C144.794 62.7953 145.382 61.6862 144.961 60.5857C144.532 59.4681 143.338 59.0399 142.071 59.5195C140.821 59.9948 140.22 61.1081 140.645 62.23V62.2257Z" fill="#396DFF"></path>
<path d="M144.798 66.9187C147.852 66.3106 150.145 68.0406 150.686 70.734C151.111 72.8494 150.291 74.7849 148.59 75.7784L147.014 73.4104C147.993 72.8708 148.187 72.023 148.032 71.265C147.8 70.1089 146.662 69.5094 145.386 69.762C143.961 70.0446 143.308 71.1922 143.522 72.267C143.677 73.0293 144.227 73.7272 145.3 73.9071L144.759 76.7162C142.81 76.4507 141.306 74.9776 140.868 72.7937C140.319 70.0489 141.732 67.531 144.798 66.9187Z" fill="#396DFF"></path>
<path d="M155.557 77.2388L155.656 80.0692L148.337 80.3262V80.3604C149.506 81.2468 150.601 82.1204 151.7 83.011L151.816 86.3468L147.771 82.9939C145.971 84.3385 144.159 85.6831 142.359 87.0319L142.243 83.7133L145.696 81.2811C145.366 81.007 145.035 80.7287 144.704 80.4546L142.136 80.5446L142.037 77.7141L155.561 77.243L155.557 77.2388Z" fill="#396DFF"></path>
<path d="M147.011 86.561C149.884 86.9036 151.795 89.1217 151.46 91.9008C151.155 94.4444 149.124 96.29 145.782 95.8918L145.112 95.8104L145.903 89.2459C144.747 89.3615 144.116 90.2222 144 91.1943C143.914 91.8965 144.163 92.6588 144.958 93.1255L143.566 95.6263C142.244 94.8726 141.204 93.1683 141.475 90.9245C141.814 88.1112 144.004 86.2013 147.006 86.561H147.011ZM147.298 93.2368C148.415 93.1512 148.969 92.5175 149.081 91.5968C149.201 90.6076 148.617 89.9439 147.736 89.6013L147.298 93.2368Z" fill="#396DFF"></path>
<path d="M143.708 97.6987L147.402 98.6751C147.561 98.0713 147.72 97.4846 147.878 96.8809L150.365 97.536L149.888 99.3302C150.739 99.5529 151.589 99.7798 152.439 100.003L151.718 102.726L149.167 102.054C148.961 102.837 148.75 103.621 148.544 104.4L146.057 103.745L146.68 101.398C145.783 101.163 144.898 100.927 144 100.692C143.197 100.482 142.218 100.221 141.896 101.446C141.78 101.887 141.806 102.311 141.844 102.636L139.426 101.998C139.319 101.48 139.396 100.855 139.564 100.221C140.461 96.8466 142.815 97.4675 143.713 97.703L143.708 97.6987Z" fill="#396DFF"></path>
<path d="M141.599 103.012L141.388 105.749C140.31 105.749 139.864 106.254 139.67 106.725C139.49 107.162 139.481 107.633 139.885 107.8C140.37 107.997 140.774 107.509 141.101 107.11L141.796 106.263C142.638 105.239 143.823 104.396 145.374 105.029C147.062 105.719 147.671 107.573 146.825 109.633C146.07 111.474 144.609 112.317 143.175 112.15L143.372 109.444C143.926 109.47 144.489 109.354 144.742 108.729C144.936 108.262 144.811 107.847 144.468 107.706C143.999 107.513 143.501 108.151 143.05 108.712L142.629 109.251C142.063 109.967 140.916 111.465 138.957 110.669C137.141 109.928 136.617 108.091 137.523 105.89C138.382 103.8 139.945 102.798 141.594 103.017L141.599 103.012Z" fill="#396DFF"></path>
<path d="M147.615 117.199L146.155 119.61L141.624 116.882L141.607 116.912C142.126 118.013 142.019 119.13 141.461 120.055C140.55 121.554 138.695 122.171 136.569 120.89L131.445 117.803L132.906 115.392L136.96 117.833C137.686 118.27 138.927 119.019 139.7 117.747C140.121 117.054 140.224 116.034 138.63 115.075L134.576 112.634L136.036 110.224L147.619 117.199H147.615Z" fill="#396DFF"></path>
<path d="M138.003 124.582L136.255 126.795L128.812 120.955L130.56 118.741L138.003 124.582ZM140.571 128.418C139.996 129.146 138.974 129.245 138.282 128.701C137.539 128.119 137.393 127.104 137.969 126.371C138.566 125.618 139.588 125.519 140.335 126.102C141.027 126.645 141.173 127.66 140.576 128.414L140.571 128.418Z" fill="#396DFF"></path>
<path d="M134.707 128.825L132.718 130.778L131.877 129.926L131.851 129.952C131.984 131.288 131.653 132.204 130.859 132.983C129.003 134.803 126.375 134.187 124.502 132.29C122.235 129.994 122.428 127.228 123.983 125.704C124.936 124.77 126.001 124.672 126.753 124.783L123.442 121.43L125.456 119.456L134.707 128.834V128.825ZM126.349 127.16C125.503 127.986 125.589 129.254 126.53 130.204C127.479 131.163 128.746 131.27 129.587 130.444C130.442 129.605 130.356 128.341 129.407 127.378C128.471 126.427 127.204 126.325 126.349 127.164V127.16Z" fill="#396DFF"></path>
<path d="M101.74 144.027L101.839 144.506L98.9913 145.513L98.8968 145.067C98.6391 143.847 97.8875 142.969 96.5948 143.239C95.1217 143.547 95.2377 144.918 95.4224 145.808L97.136 153.983L94.2069 154.591L92.5792 146.832C92.2786 145.397 91.4497 141.432 95.869 140.511C98.7164 139.92 101.134 141.136 101.74 144.027Z" fill="#396DFF"></path>
<path d="M91.0232 146.544C91.1263 149.478 89.1722 151.619 86.2474 151.721C83.3399 151.824 81.2398 149.824 81.1367 146.891C81.0336 143.941 82.9877 141.83 85.8953 141.727C88.82 141.624 90.9201 143.59 91.0232 146.54V146.544ZM85.9898 144.429C84.8087 144.472 84.0142 145.461 84.0614 146.793C84.1087 148.159 84.9719 149.071 86.153 149.028C87.3512 148.985 88.1457 147.996 88.0985 146.647C88.0512 145.315 87.188 144.386 85.9898 144.429Z" fill="#396DFF"></path>
<path d="M77.5159 155.61C76.5882 155.528 75.9483 154.728 76.0213 153.854C76.1029 152.912 76.8759 152.235 77.8036 152.317C78.7656 152.398 79.4055 153.199 79.3239 154.141C79.2466 155.015 78.4736 155.691 77.5159 155.61ZM79.3325 151.366L76.5195 151.122L77.3441 141.714L80.1571 141.958L79.3325 151.366Z" fill="#396DFF"></path>
<path d="M73.9915 150.925L71.2643 150.347L71.522 149.144L71.4877 149.135C70.6158 149.983 69.4863 150.244 68.4298 150.022C66.7076 149.658 65.518 148.112 66.0333 145.688L67.2788 139.852L70.0403 140.438L69.0568 145.054C68.8808 145.876 68.5801 147.298 70.036 147.606C70.8306 147.773 71.8312 147.538 72.2178 145.722L73.2013 141.106L75.9628 141.693L73.9915 150.929V150.925Z" fill="#396DFF"></path>
<path d="M61.1668 136.974L60.3208 147.521L57.4862 146.236C57.6795 144.138 57.9157 142.112 58.2121 139.787L58.182 139.774C56.6187 141.53 55.2143 143.024 53.7885 144.566L51.0312 143.316L60.8147 133.3L63.602 134.563L61.1625 136.978L61.1668 136.974Z" fill="#396DFF"></path>
<path d="M52.8321 138.892C51.2001 141.333 48.357 141.937 45.9218 140.318C43.5039 138.708 42.9671 135.86 44.5991 133.42C46.2397 130.966 49.0656 130.388 51.4835 131.998C53.9187 133.617 54.4727 136.434 52.8278 138.892H52.8321ZM49.9847 134.242C49.0012 133.587 47.7772 133.929 47.0342 135.038C46.274 136.173 46.4372 137.419 47.425 138.074C48.4257 138.738 49.6497 138.395 50.397 137.274C51.14 136.164 50.9811 134.91 49.9847 134.242Z" fill="#396DFF"></path>
<path d="M44.3397 131.647L40.2512 135.942L38.2026 134.002L41.6384 130.393C42.3942 129.596 42.828 128.68 42.0292 127.926C41.3034 127.241 40.2941 127.374 39.418 128.29L35.9822 131.9L33.9336 129.96L38.4173 125.25C39.4996 124.111 39.856 123.567 40.234 122.899L42.2697 124.826C42.0292 125.224 41.8789 125.481 41.7285 125.614L41.7543 125.635C42.5531 125.46 43.4765 125.567 44.4944 126.53C46.1135 128.063 46.019 129.879 44.3397 131.639V131.647Z" fill="#396DFF"></path>
<path d="M32.2117 127.913L30.4852 125.729L31.4945 124.937L31.4515 124.886C30.5453 124.997 29.433 124.838 28.6685 123.871C28.4882 123.644 28.3722 123.438 28.252 123.1L30.7515 121.139C30.8975 121.541 31.1509 121.918 31.3313 122.145C32.7357 123.918 34.3548 122.646 35.2996 121.905L37.9022 119.858L39.6502 122.068L32.2117 127.917V127.913Z" fill="#396DFF"></path>
<path d="M25.5973 118.719L24.2358 116.291L25.3568 115.666L25.3224 115.606C24.4119 115.572 23.3382 115.242 22.737 114.167C22.5952 113.919 22.5093 113.692 22.4492 113.341L25.2236 111.795C25.3052 112.215 25.4985 112.63 25.6359 112.878C26.7397 114.853 28.5435 113.846 29.5914 113.264L32.486 111.654L33.8646 114.112L25.5973 118.715V118.719Z" fill="#396DFF"></path>
<path d="M26.4007 110.498C23.6477 111.53 20.985 110.365 19.9543 107.633C18.9321 104.918 20.1647 102.293 22.9176 101.261C25.6877 100.225 28.3161 101.398 29.3383 104.113C30.369 106.845 29.1665 109.457 26.3964 110.494L26.4007 110.498ZM26.8087 105.068C26.3921 103.963 25.1981 103.527 23.9484 103.998C22.6642 104.477 22.0716 105.582 22.4881 106.687C22.909 107.809 24.103 108.241 25.3699 107.77C26.6197 107.303 27.2295 106.19 26.8087 105.068Z" fill="#396DFF"></path>
<path d="M22.6817 100.345C19.6238 100.936 17.339 99.1931 16.8151 96.4953C16.4028 94.3757 17.2359 92.4445 18.941 91.4638L20.5042 93.8404C19.5207 94.3714 19.3232 95.2193 19.4735 95.9815C19.6968 97.1419 20.8349 97.7457 22.1105 97.5016C23.5406 97.2233 24.1977 96.0842 23.9873 95.0094C23.8413 94.2472 23.2915 93.545 22.2178 93.3565L22.7762 90.5518C24.726 90.8301 26.2205 92.3117 26.6414 94.4956C27.174 97.2447 25.7481 99.754 22.6774 100.345H22.6817Z" fill="#396DFF"></path>
<path d="M11.9878 89.9691L11.9062 87.1387L19.2288 86.9246V86.8903C18.0692 85.9953 16.974 85.1175 15.8832 84.2226L15.7844 80.8868L19.8086 84.2611C21.6124 82.9251 23.4376 81.5891 25.2414 80.2573L25.3402 83.576L21.8743 85.9868C22.205 86.2651 22.5357 86.5392 22.8621 86.8175L25.4304 86.7404L25.512 89.5709L11.9878 89.9649V89.9691Z" fill="#396DFF"></path>
<path d="M20.5862 80.6858C17.7173 80.3261 15.8147 78.0994 16.1669 75.3203C16.489 72.7768 18.5247 70.944 21.866 71.3637L22.536 71.4493L21.7071 78.0052C22.8624 77.8939 23.498 77.0417 23.6226 76.0697C23.7127 75.3674 23.4679 74.6052 22.6734 74.1299L24.0778 71.6377C25.3963 72.3999 26.4227 74.1085 26.1436 76.348C25.7871 79.1571 23.5882 81.0583 20.5862 80.6815V80.6858ZM20.3371 74.01C19.2204 74.0914 18.6621 74.7165 18.5462 75.6372C18.4216 76.6221 19.0014 77.2901 19.8775 77.6412L20.3371 74.01Z" fill="#396DFF"></path>
<path d="M23.9488 69.5778L20.2596 68.58C20.0964 69.1838 19.9375 69.7705 19.7743 70.37L17.2919 69.702L17.7772 67.912C16.9269 67.6808 16.0808 67.4539 15.2305 67.2226L15.9692 64.5035L18.5159 65.1929C18.7264 64.4136 18.9411 63.6299 19.1516 62.8506L21.6339 63.5186L20.9983 65.8609C21.8959 66.105 22.7763 66.3405 23.6782 66.5846C24.477 66.803 25.4562 67.0642 25.7912 65.8438C25.9115 65.4027 25.8857 64.9788 25.8514 64.6534L28.2693 65.3042C28.3724 65.8224 28.2908 66.4476 28.119 67.0813C27.2042 70.4513 24.8507 69.8176 23.9531 69.5735L23.9488 69.5778Z" fill="#396DFF"></path>
<path d="M26.0882 64.2769L26.3158 61.5406C27.3938 61.5492 27.8447 61.0439 28.038 60.5729C28.2184 60.1361 28.2313 59.6693 27.8276 59.4981C27.3423 59.2968 26.9386 59.7849 26.6079 60.1789L25.9078 61.0225C25.0618 62.0416 23.8678 62.8809 22.3217 62.2386C20.6339 61.5406 20.0369 59.6822 20.8959 57.6268C21.6646 55.7897 23.1291 54.9547 24.5593 55.1303L24.3445 57.8366C23.7905 57.8066 23.2279 57.9222 22.9702 58.5431C22.777 59.0099 22.8929 59.4253 23.2365 59.5666C23.7046 59.7593 24.2071 59.1298 24.6623 58.5688L25.0875 58.0336C25.6587 57.3227 26.814 55.8283 28.7681 56.6376C30.5805 57.3913 31.0959 59.2283 30.1768 61.425C29.305 63.5104 27.7374 64.5038 26.0925 64.2769H26.0882Z" fill="#396DFF"></path>
<path d="M20.1562 50.0388L21.6293 47.6365L26.1431 50.3942L26.1603 50.3642C25.6492 49.2594 25.7609 48.1418 26.3235 47.2212C27.2426 45.7267 29.1022 45.1186 31.2238 46.4161L36.3302 49.5335L34.8571 51.9358L30.8201 49.4693C30.0986 49.0282 28.8574 48.2703 28.08 49.5378C27.6549 50.2272 27.5432 51.2506 29.1323 52.2184L33.1693 54.6849L31.6962 57.0871L20.1562 50.0431V50.0388Z" fill="#396DFF"></path>
<path d="M27.2601 38.8753C27.8399 38.1516 28.862 38.0574 29.5535 38.6012C30.2964 39.1879 30.4339 40.207 29.8541 40.9307C29.2528 41.6844 28.2307 41.7743 27.4877 41.1876C26.8005 40.6395 26.6588 39.6247 27.2601 38.871V38.8753ZM29.8068 42.7249L31.5634 40.5239L38.9718 46.4032L37.2153 48.6042L29.8068 42.7249Z" fill="#396DFF"></path>
<path d="M33.1309 38.4943L35.1322 36.5545L35.9697 37.4152L35.9954 37.3895C35.8709 36.0535 36.2059 35.1371 37.0047 34.3621C38.8729 32.5507 41.4927 33.1845 43.3566 35.0943C45.6114 37.4024 45.4052 40.1686 43.8376 41.6845C42.8799 42.6137 41.8148 42.7036 41.0632 42.588L44.353 45.9623L42.3302 47.9278L33.1309 38.4986V38.4943ZM41.4798 40.2072C42.3302 39.385 42.2529 38.1175 41.3209 37.1626C40.3761 36.1948 39.1091 36.0835 38.2631 36.9056C37.4041 37.7407 37.4814 39.0082 38.422 39.9716C39.3539 40.9265 40.6209 41.0379 41.4798 40.2029V40.2072Z" fill="#396DFF"></path>
<path d="M51.6074 22.7661C53.1234 23.7981 54.9057 24.3719 56.7396 24.4233C55.7046 25.9349 55.1291 27.7119 55.0775 29.5404C53.5615 28.5084 51.7792 27.9346 49.9453 27.8832C50.9803 26.3716 51.5558 24.5946 51.6074 22.7661Z" fill="#396DFF"></path>
<path d="M112.228 136.94C113.745 137.972 115.527 138.546 117.361 138.597C116.326 140.109 115.75 141.886 115.699 143.714C114.183 142.682 112.4 142.108 110.566 142.057C111.601 140.545 112.177 138.768 112.228 136.94Z" fill="#396DFF"></path>
<path d="M107.629 100.627C107.595 99.2356 107.505 97.8439 107.376 96.4565L120.299 104.25L120.26 101.715C120.174 95.9555 119.242 87.721 115.291 81.1993C111.748 75.3543 106.418 72.1512 99.8427 71.8429C98.2708 68.9696 96.4756 66.2162 94.47 63.617C86.0222 52.6848 74.4694 44.9727 61.0655 41.3115L59.7041 40.939L59.3304 42.2964C55.6627 55.6608 56.4358 69.5006 61.568 82.317C62.7705 85.3187 64.2093 88.2177 65.8584 90.9925C62.6288 96.8633 62.646 103.154 65.9315 109.251C69.5476 115.961 76.1787 120.954 81.1091 123.965L83.2779 125.288L83.1276 109.967C84.3258 110.836 85.5455 111.671 86.8039 112.454L87.5168 112.9L107.646 101.458L107.625 100.619L107.629 100.627ZM117.335 99.1799L106.955 92.9152C106.014 86.6462 104.112 80.5228 101.354 74.7976C114.2 76.5361 116.833 91.5406 117.335 99.1799ZM61.6925 44.416C65.837 45.6493 69.7838 47.3022 73.5031 49.3319C68.0702 49.7772 63.0712 52.6163 59.9231 57.0525C60.0648 52.8304 60.6489 48.6039 61.6968 44.416H61.6925ZM80.4133 120.171C74.0313 115.82 62.2981 105.8 67.6193 93.7844C71.1238 99.0471 75.4056 103.783 80.2931 107.783L80.4133 120.171ZM87.5941 109.633C77.1235 102.91 68.8304 92.8723 64.1921 81.2807C61.8472 75.4185 60.4557 69.3379 60.0262 63.1845C62.4184 55.2455 70.6728 50.5523 78.7469 52.5435C83.8362 56.0462 88.38 60.3369 92.241 65.3341C99.8814 75.2215 104.318 87.4469 104.79 99.8565L87.5984 109.633H87.5941Z" fill="#396DFF"></path>
<path d="M81.2846 62.2036C77.0157 59.4502 71.2951 60.6749 68.5336 64.9313C67.1979 66.9953 66.7426 69.4532 67.2623 71.8512C67.7777 74.2534 69.2035 76.3088 71.2736 77.6406C72.8197 78.634 74.5505 79.1094 76.2641 79.1094C79.2919 79.1094 82.2595 77.6277 84.0204 74.9086C86.7819 70.6522 85.5536 64.9484 81.2846 62.195V62.2036ZM81.654 73.3885C79.7385 76.3431 75.7659 77.1952 72.8025 75.2854C71.3681 74.3605 70.376 72.9303 70.0195 71.2645C69.6588 69.5988 69.9723 67.8902 70.9043 66.46C71.8319 65.0298 73.2664 64.0406 74.937 63.6852C75.388 63.5867 75.8432 63.5396 76.2941 63.5396C77.5138 63.5396 78.7078 63.8907 79.7557 64.563C82.7191 66.4729 83.5737 70.4338 81.6583 73.3885H81.654Z" fill="#396DFF"></path>
<path d="M100.383 109.245L97.9355 110.636L106.055 124.835L108.503 123.444L100.383 109.245Z" fill="#396DFF"></path>
<path d="M104.99 106.061L103.219 108.245L110.717 114.288L112.488 112.104L104.99 106.061Z" fill="#396DFF"></path>
<path d="M96.0298 112.344L93.2422 112.751L94.639 122.263L97.4266 121.856L96.0298 112.344Z" fill="#396DFF"></path>
</g>
<defs>
<clipPath id="clip0_92_3851">
<rect width="163.2" height="162.72" fill="white" transform="translate(2.19336 2.04492)"></rect>
</clipPath>
</defs>
</svg>