<svg width="168" height="167" viewBox="0 0 168 167" fill="none" xmlns="http://www.w3.org/2000/svg" class="klutch_spin_on_scroll" style="transform: rotate(0rad);">
<g clip-path="url(#clip0_92_3850)">
<path d="M83.9708 166.742C130.016 166.742 167.342 129.416 167.342 83.3712C167.342 37.3266 130.016 0 83.9708 0C37.9262 0 0.599609 37.3266 0.599609 83.3712C0.599609 129.416 37.9262 166.742 83.9708 166.742Z" fill="#F9E0F4"></path>
<path d="M64.248 11.0155L74.1937 8.9707L74.8512 12.1723L68.3664 13.5067C68.5776 14.5243 68.7792 15.5179 68.9904 16.5355L75.0864 15.2827L75.7825 18.6619L69.6864 19.9147C70.0704 21.7915 70.4592 23.6635 70.8432 25.5403L67.3872 26.2507L64.2528 11.0107L64.248 11.0155Z" fill="#396DFF"></path>
<path d="M79.0024 7.90528C80.0968 7.83328 80.9896 8.65408 81.0568 9.69088C81.1288 10.8045 80.3512 11.7357 79.2568 11.8077C78.124 11.8797 77.2312 11.0589 77.1544 9.94528C77.0872 8.90848 77.8648 7.98208 78.9976 7.90528H79.0024ZM77.6488 13.1901L80.9704 12.9741L81.7 24.1149L78.3784 24.3309L77.6488 13.1901Z" fill="#396DFF"></path>
<path d="M84.0998 12.7388L87.383 12.9884L87.2726 14.438H87.311C88.199 13.31 89.4758 12.8252 90.7478 12.9212C92.8166 13.0796 94.4534 14.702 94.2326 17.6252L93.6998 24.6668L90.3782 24.4172L90.8006 18.8492C90.8774 17.8556 91.007 16.1468 89.255 16.0124C88.2998 15.9404 87.167 16.3724 87.0038 18.5612L86.5814 24.1292L83.2598 23.8796L84.1046 12.7436L84.0998 12.7388Z" fill="#396DFF"></path>
<path d="M95.8833 19.3148C96.8961 15.7244 99.6706 14.27 102.277 15.0044C103.813 15.4364 104.528 16.4252 104.84 17.3036L104.879 17.3132L106.501 11.5532L109.707 12.4556L106.323 24.4508C105.819 26.2364 105.747 27.0044 105.723 27.9068L102.555 27.014C102.584 26.462 102.603 26.1164 102.685 25.8908L102.647 25.8812C101.586 26.702 100.275 26.726 99.1042 26.3948C96.0705 25.5404 94.9569 22.5932 95.8833 19.31V19.3148ZM100.746 23.5244C102.128 23.9132 103.347 23.0348 103.77 21.542C104.202 20.006 103.563 18.6668 102.205 18.2828C100.861 17.9036 99.6177 18.7148 99.1857 20.246C98.7633 21.7436 99.3441 23.1308 100.746 23.5244Z" fill="#396DFF"></path>
<path d="M112.252 31.8765L114.508 19.5693L117.681 21.4173C117.201 23.8605 116.688 26.2173 116.054 28.9197L116.088 28.9389C118.128 27.0573 119.956 25.4685 121.814 23.8269L124.9 25.6221L112.224 36.2445L109.104 34.4253L112.252 31.8717V31.8765Z" fill="#396DFF"></path>
<path d="M122.293 30.643C124.563 28.0174 127.981 27.7294 130.587 29.9902C133.179 32.2366 133.385 35.6542 131.11 38.2798C128.825 40.9198 125.437 41.1742 122.845 38.9326C120.238 36.6718 120.008 33.283 122.293 30.643ZM124.933 36.5182C125.989 37.4302 127.472 37.2142 128.504 36.019C129.56 34.7998 129.555 33.3118 128.499 32.3998C127.429 31.4734 125.945 31.6942 124.899 32.899C123.867 34.0894 123.862 35.5918 124.933 36.5182Z" fill="#396DFF"></path>
<path d="M131.145 40.4253L136.669 36.1245L138.714 38.7549L134.073 42.3693C133.05 43.1661 132.383 44.1645 133.18 45.1869C133.905 46.1133 135.109 46.1373 136.29 45.2205L140.937 41.6061L142.981 44.2365L136.919 48.9501C135.455 50.0877 134.941 50.6637 134.385 51.3789L132.349 48.7677C132.7 48.3405 132.921 48.0717 133.122 47.9373L133.098 47.9085C132.138 47.9709 131.077 47.6829 130.065 46.3773C128.447 44.2989 128.879 42.1917 131.149 40.4301L131.145 40.4253Z" fill="#396DFF"></path>
<path d="M144.586 47.0204L146.189 49.8956L144.864 50.6348L144.902 50.702C145.978 50.7404 147.245 51.1292 147.955 52.4012C148.118 52.6988 148.224 52.9628 148.296 53.3756L145.022 55.2044C144.926 54.71 144.701 54.2204 144.533 53.9228C143.227 51.59 141.106 52.7756 139.867 53.4668L136.454 55.3724L134.832 52.4636L144.581 47.0156L144.586 47.0204Z" fill="#396DFF"></path>
<path d="M144.018 61.4495L150.752 59.5439L151.659 62.7503L145.995 64.3535C144.747 64.7039 143.759 65.3807 144.109 66.6287C144.431 67.7615 145.539 68.2367 146.979 67.8287L152.639 66.2255L153.546 69.4319L146.159 71.5247C144.373 72.0287 143.682 72.3696 142.899 72.8208L141.997 69.6336C142.482 69.3744 142.789 69.2015 143.024 69.1583L143.015 69.1199C142.103 68.8175 141.229 68.1551 140.778 66.5615C140.063 64.0271 141.253 62.2415 144.018 61.4591V61.4495Z" fill="#396DFF"></path>
<path d="M154.194 72.9404L154.458 76.2187L153.008 76.3339V76.3723C154.266 77.0732 154.943 78.2588 155.043 79.5308C155.207 81.5996 153.858 83.4668 150.935 83.702L143.898 84.2636L143.634 80.942L149.197 80.4955C150.191 80.4139 151.899 80.2796 151.76 78.5276C151.683 77.5724 151.079 76.5211 148.895 76.6987L143.327 77.1452L143.062 73.8236L154.194 72.9355V72.9404Z" fill="#396DFF"></path>
<path d="M154.798 86.3851L154.597 89.7067L143.451 89.0251L143.653 85.6987L154.798 86.3803V86.3851ZM159.872 88.3915C159.805 89.4859 158.878 90.2683 157.842 90.2059C156.728 90.1387 155.902 89.2459 155.97 88.1515C156.037 87.0187 156.968 86.2363 158.082 86.3035C159.118 86.3659 159.944 87.2587 159.872 88.3915Z" fill="#396DFF"></path>
<path d="M149.049 91.0651C152.649 91.7803 154.368 94.7035 153.734 97.8907C153.235 100.396 151.468 102.139 149.169 102.456L148.521 99.1531C149.832 99.0091 150.427 98.1691 150.604 97.2715C150.878 95.9035 149.908 94.7323 148.401 94.4347C146.721 94.0987 145.492 95.0539 145.238 96.3259C145.06 97.2283 145.348 98.2363 146.428 98.9227L144.566 101.745C142.564 100.574 141.595 98.2891 142.108 95.7067C142.752 92.4619 145.43 90.3499 149.049 91.0651Z" fill="#396DFF"></path>
<path d="M146.587 103.027C149.803 104.337 151.171 107.476 149.87 110.673C148.574 113.851 145.401 115.142 142.185 113.831C138.955 112.516 137.62 109.387 138.916 106.209C140.217 103.012 143.356 101.707 146.587 103.022V103.027ZM141.868 107.414C141.34 108.71 142.027 110.039 143.486 110.635C144.983 111.244 146.385 110.759 146.913 109.468C147.446 108.158 146.764 106.823 145.286 106.219C143.827 105.623 142.406 106.099 141.873 107.414H141.868Z" fill="#396DFF"></path>
<path d="M145.987 118.214L144.264 121.017L142.973 120.225L142.93 120.292C143.419 121.248 143.698 122.544 142.935 123.787C142.757 124.075 142.575 124.291 142.248 124.56L139.056 122.596C139.445 122.27 139.757 121.833 139.935 121.545C141.336 119.27 139.263 117.993 138.058 117.254L134.727 115.204L136.474 112.368L145.987 118.219V118.214Z" fill="#396DFF"></path>
<path d="M140.784 126.465L138.619 128.947L137.52 127.992L137.491 128.02C137.87 129.408 137.491 130.718 136.651 131.683C135.288 133.248 133.008 133.584 130.8 131.659L125.477 127.017L127.665 124.507L131.875 128.179C132.629 128.832 133.92 129.96 135.072 128.64C135.701 127.92 136.032 126.753 134.376 125.308L130.166 121.636L132.355 119.126L140.774 126.465H140.784Z" fill="#396DFF"></path>
<path d="M103.318 156.662L93.3632 158.654L92.72 155.448L99.2144 154.147C99.0128 153.129 98.8112 152.131 98.6096 151.118L92.5088 152.337L91.832 148.953L97.9328 147.734C97.5584 145.857 97.1792 143.981 96.8048 142.099L100.266 141.408L103.318 156.662Z" fill="#396DFF"></path>
<path d="M89.9174 154.42L86.591 154.617L85.9238 143.472L89.2502 143.27L89.9174 154.42ZM88.535 159.696C87.4406 159.763 86.5526 158.937 86.4902 157.9C86.423 156.787 87.2054 155.86 88.2998 155.793C89.4326 155.726 90.3254 156.552 90.3878 157.665C90.4502 158.702 89.6678 159.628 88.5302 159.696H88.535Z" fill="#396DFF"></path>
<path d="M83.486 154.833L80.2076 154.569L80.3228 153.12H80.2844C79.3916 154.243 78.1148 154.723 76.8428 154.617C74.774 154.449 73.1468 152.817 73.382 149.894L73.9532 142.857L77.2748 143.126L76.8236 148.689C76.742 149.683 76.6028 151.392 78.3548 151.536C79.31 151.613 80.4428 151.185 80.6204 148.997L81.0716 143.429L84.3932 143.697L83.4908 154.829L83.486 154.833Z" fill="#396DFF"></path>
<path d="M71.7266 148.195C70.6946 151.776 67.9154 153.221 65.309 152.472C63.7778 152.03 63.0674 151.037 62.7554 150.158L62.717 150.149L61.061 155.899L57.8594 154.977L61.3058 143.001C61.8194 141.221 61.8914 140.453 61.925 139.55L65.0882 140.457C65.0546 141.009 65.0354 141.355 64.9538 141.581L64.9922 141.59C66.0578 140.774 67.3682 140.76 68.5394 141.096C71.5682 141.969 72.6674 144.917 71.7266 148.195ZM66.8882 143.961C65.5106 143.563 64.2818 144.437 63.8546 145.929C63.413 147.461 64.0418 148.805 65.405 149.198C66.7442 149.582 67.9922 148.781 68.4338 147.249C68.8658 145.757 68.2898 144.365 66.8882 143.961Z" fill="#396DFF"></path>
<path d="M55.4394 135.561L53.121 147.854L49.9578 145.992C50.4474 143.549 50.9802 141.197 51.6186 138.499L51.585 138.48C49.5354 140.347 47.697 141.931 45.8346 143.563L42.7578 141.749L55.4874 131.193L58.5978 133.027L55.4346 135.561H55.4394Z" fill="#396DFF"></path>
<path d="M45.3833 136.742C43.0985 139.353 39.6809 139.627 37.0841 137.352C34.5017 135.091 34.3145 131.673 36.5993 129.057C38.8985 126.432 42.2873 126.192 44.8697 128.448C47.4665 130.718 47.6777 134.112 45.3785 136.737L45.3833 136.742ZM42.7721 130.853C41.7209 129.931 40.2377 130.147 39.2009 131.333C38.1353 132.547 38.1353 134.03 39.1865 134.952C40.2521 135.883 41.7353 135.672 42.7865 134.472C43.8233 133.286 43.8377 131.789 42.7721 130.853Z" fill="#396DFF"></path>
<path d="M36.5795 126.912L31.0307 131.184L29.0003 128.544L33.6611 124.953C34.6883 124.161 35.3603 123.168 34.5683 122.141C33.8483 121.209 32.6435 121.181 31.4627 122.093L26.8019 125.683L24.7715 123.043L30.8579 118.358C32.3267 117.225 32.8451 116.654 33.4067 115.944L35.4275 118.569C35.0723 118.992 34.8515 119.261 34.6499 119.39L34.6739 119.424C35.6339 119.366 36.6899 119.659 37.7027 120.969C39.3107 123.057 38.8643 125.16 36.5891 126.912H36.5795Z" fill="#396DFF"></path>
<path d="M23.2397 120.331L21.6365 117.456L22.9613 116.717L22.9229 116.645C21.8477 116.606 20.5805 116.217 19.8701 114.945C19.7021 114.648 19.6013 114.384 19.5293 113.971L22.8029 112.142C22.8989 112.637 23.1245 113.126 23.2925 113.424C24.5981 115.757 26.7197 114.571 27.9581 113.88L31.3709 111.974L32.9933 114.883L23.2445 120.331H23.2397Z" fill="#396DFF"></path>
<path d="M23.8128 105.821L17.0688 107.693L16.176 104.486L21.8448 102.912C23.0928 102.566 24.0864 101.894 23.7408 100.646C23.424 99.5134 22.32 99.0334 20.88 99.4318L15.2112 101.006L14.3184 97.795L21.7152 95.7406C23.5008 95.2462 24.1968 94.9054 24.984 94.459L25.872 97.651C25.3872 97.9102 25.08 98.0782 24.8448 98.1214L24.8544 98.1598C25.7664 98.467 26.6352 99.1342 27.0768 100.728C27.7824 103.267 26.5776 105.048 23.8128 105.816V105.821Z" fill="#396DFF"></path>
<path d="M13.6988 94.2859L13.454 91.0027L14.9036 90.8923V90.8539C13.646 90.1483 12.9788 88.9579 12.8828 87.6859C12.7292 85.6171 14.0876 83.7547 17.0108 83.5387L24.0524 83.0107L24.302 86.3323L18.734 86.7499C17.7404 86.8267 16.0268 86.9515 16.1612 88.7035C16.2332 89.6587 16.8332 90.7147 19.0172 90.5515L24.5852 90.1339L24.8348 93.4555L13.6988 94.2907V94.2859Z" fill="#396DFF"></path>
<path d="M8.09678 78.7966C8.16878 77.7022 9.09998 76.9246 10.1368 76.9918C11.2504 77.0638 12.0712 77.9614 11.9992 79.0558C11.9224 80.1886 10.9912 80.9662 9.87758 80.8942C8.84078 80.827 8.01998 79.9342 8.09678 78.7966ZM13.1608 80.8318L13.3816 77.5102L24.5272 78.2494L24.3064 81.571L13.1608 80.8318Z" fill="#396DFF"></path>
<path d="M18.9356 76.1804C15.3404 75.446 13.6364 72.5132 14.2892 69.3308C14.798 66.83 16.5788 65.0972 18.878 64.79L19.5068 68.0924C18.1964 68.2316 17.5964 69.0668 17.414 69.9644C17.1356 71.3324 18.0956 72.5036 19.6028 72.8108C21.2828 73.1516 22.5164 72.206 22.7756 70.934C22.958 70.0364 22.6796 69.0188 21.5948 68.3324L23.4716 65.5196C25.4684 66.7004 26.4284 68.99 25.9004 71.5724C25.238 74.8172 22.55 76.9148 18.9356 76.1756V76.1804Z" fill="#396DFF"></path>
<path d="M21.4509 64.2477C18.2445 62.9229 16.8909 59.7741 18.2061 56.5869C19.5165 53.4141 22.6941 52.1373 25.9053 53.4621C29.1309 54.7917 30.4509 57.9261 29.1405 61.0989C27.8253 64.2909 24.6813 65.5821 21.4557 64.2477H21.4509ZM26.1885 59.8797C26.7213 58.5885 26.0445 57.2541 24.5853 56.6493C23.0925 56.0349 21.6861 56.5101 21.1533 57.8013C20.6109 59.1117 21.2925 60.4461 22.7661 61.0557C24.2205 61.6557 25.6461 61.1853 26.1885 59.8797Z" fill="#396DFF"></path>
<path d="M22.1415 49.0316L23.8791 46.238L25.1655 47.0396L25.2087 46.9724C24.7239 46.0124 24.4503 44.7164 25.2183 43.4828C25.3959 43.1948 25.5783 42.9788 25.9095 42.7148L29.0919 44.6972C28.7031 45.0188 28.3863 45.4556 28.2039 45.7436C26.7927 48.014 28.8567 49.3004 30.0615 50.0444L33.3831 52.1084L31.6215 54.9356L22.1367 49.0364L22.1415 49.0316Z" fill="#396DFF"></path>
<path d="M27.3837 40.8191L29.5581 38.3519L30.6525 39.3167L30.6765 39.2879C30.3069 37.8959 30.6909 36.5903 31.5357 35.6303C32.9085 34.0751 35.1885 33.7439 37.3869 35.6831L42.6861 40.3487L40.4829 42.8495L36.2925 39.1583C35.5437 38.5007 34.2573 37.3631 33.0957 38.6831C32.4621 39.4031 32.1261 40.5647 33.7725 42.0191L37.9629 45.7103L35.7597 48.2111L27.3789 40.8287L27.3837 40.8191Z" fill="#396DFF"></path>
<path d="M47.9219 21.5664C49.4723 22.6224 51.2915 23.2128 53.1683 23.2656C52.1123 24.816 51.5219 26.6352 51.4691 28.512C49.9187 27.456 48.0995 26.8656 46.2227 26.8128C47.2787 25.2624 47.8691 23.4432 47.9219 21.5664Z" fill="#396DFF"></path>
<path d="M115.025 138.235C116.576 139.291 118.395 139.882 120.272 139.935C119.216 141.485 118.625 143.304 118.573 145.181C117.022 144.125 115.203 143.535 113.326 143.482C114.382 141.931 114.973 140.112 115.025 138.235Z" fill="#396DFF"></path>
<path d="M122.318 108.043C118.977 88.1856 110.942 77.3664 104.788 71.7888C98.9131 66.4608 93.6379 64.752 92.1883 64.3584C92.5003 57.1008 85.1179 49.6272 84.7867 49.296L83.1307 47.64L82.4011 49.8624C82.3243 50.0976 81.1387 53.7312 80.0107 58.0704L73.9963 50.8416L71.7739 59.3568L56.2987 39.9312L62.9275 75.0192C62.1067 76.4736 60.1243 80.7168 60.8971 86.7936C59.4139 89.304 54.393 98.04 52.0602 105.019C50.8842 108.538 51.2586 111.73 53.1018 113.784C54.3546 115.181 56.1499 115.906 58.2859 115.906C59.0299 115.906 59.8171 115.819 60.6379 115.637C61.3675 115.478 62.0635 115.334 62.7307 115.2C69.1339 113.894 73.4059 113.016 86.1211 102.312C91.9675 105.394 92.1595 118.195 91.7083 123.058L94.5739 123.326C94.6459 122.554 96.1099 105.73 88.4299 100.349C89.3851 99.5328 90.3787 98.6832 91.4299 97.7904L89.5579 95.6016C87.9019 97.0176 86.3707 98.3232 84.9451 99.5376C72.2491 110.323 68.2315 111.139 62.1498 112.382C61.4683 112.522 60.7627 112.666 60.0187 112.829C57.9067 113.29 56.2075 112.944 55.2379 111.864C54.1098 110.606 53.9466 108.446 54.7866 105.941C56.4714 100.91 59.7259 94.7328 61.8187 90.984C62.0107 91.5984 62.2315 92.2272 62.4907 92.8704L63.5227 95.4624L65.0395 93.12C65.0635 93.0816 67.5403 89.304 71.5435 87.552C75.2875 85.9104 83.0443 82.5072 80.4043 71.7024C80.6203 69.9696 80.9035 68.0352 81.2395 65.952C81.9451 61.5984 83.4619 56.2368 84.3787 53.1936C86.5051 55.8 89.8795 60.7056 89.2411 64.9776C88.8955 67.2768 87.4219 69.0912 84.7243 70.5264L86.0779 73.0656C87.5755 72.2688 88.7995 71.3376 89.7499 70.2864C89.6875 76.1136 90.5947 86.1504 96.5755 94.4304C105.167 106.32 119.966 109.565 120.59 109.699L122.659 110.136L122.308 108.053L122.318 108.043ZM75.3643 56.9952L79.1659 61.56C78.9355 62.5872 78.7243 63.6144 78.5467 64.608C77.8555 64.8384 77.1835 65.0832 76.5403 65.3424L74.0155 62.1744L75.3643 56.9952ZM61.2859 50.8176L73.8187 66.5472C69.9019 68.472 67.0747 70.7088 65.3467 72.3024L61.2859 50.8176ZM70.3867 84.9024C67.7275 86.0688 65.6779 87.9168 64.3483 89.3664C62.2219 81.7008 65.2459 76.7088 65.6011 76.1568C66.0091 75.672 70.2235 70.8384 78.0283 67.8528C77.8315 69.1824 77.6539 70.44 77.5147 71.6064L77.4811 71.8752L77.5483 72.1392C79.6027 80.1168 75.1387 82.8192 70.3867 84.9024ZM98.9179 92.7312C92.3803 83.6784 92.4667 71.9088 92.7595 67.5696C97.7899 69.4464 113.524 77.5248 119.073 106.286C114.787 104.957 104.999 101.155 98.9179 92.7312Z" fill="#396DFF"></path>
<path d="M78.5701 90.859C76.7941 91.5118 74.9701 90.6094 74.9509 90.6046L73.6309 93.163C73.7173 93.2062 75.2245 93.979 77.1877 93.979C77.9221 93.979 78.7189 93.8735 79.5253 93.5807C81.5365 92.8511 83.0917 91.2094 84.1429 88.699L81.4885 87.5854C80.7637 89.3134 79.7845 90.4175 78.5701 90.8639V90.859Z" fill="#396DFF"></path>
</g>
<defs>
<clipPath id="clip0_92_3850">
<rect width="166.747" height="166.747" fill="white" transform="translate(0.599609)"></rect>
</clipPath>
</defs>
</svg>